<?xml version="1.0" encoding="UTF-8" standalone="no"?>
<svg
   viewBox="0 0 50 50"
   width="50px"
   height="50px"
   version="1.1"
   id="svg1"
   sodipodi:docname="logo.svg"
   inkscape:version="1.3.2 (091e20e, 2023-11-25, custom)"
   xmlns:inkscape="http://www.inkscape.org/namespaces/inkscape"
   xmlns:sodipodi="http://sodipodi.sourceforge.net/DTD/sodipodi-0.dtd"
   xmlns="http://www.w3.org/2000/svg"
   xmlns:svg="http://www.w3.org/2000/svg">
  <defs
     id="defs1" />
  <sodipodi:namedview
     id="namedview1"
     pagecolor="#ffffff"
     bordercolor="#000000"
     borderopacity="0.25"
     inkscape:showpageshadow="2"
     inkscape:pageopacity="0.0"
     inkscape:pagecheckerboard="0"
     inkscape:deskcolor="#d1d1d1"
     inkscape:zoom="12.82"
     inkscape:cx="25"
     inkscape:cy="24.960998"
     inkscape:window-width="1099"
     inkscape:window-height="860"
     inkscape:window-x="100"
     inkscape:window-y="5"
     inkscape:window-maximized="0"
     inkscape:current-layer="svg1" />
  <path
     d="M12.575 37.848l.162.162v4.81l-.162.162H9.807l-.163-.162V40.51l-.097-.032-1.8 2.374-.26.13H5.352l-.262-.13-1.798-2.374L3.193 40.51v2.309l-.162.162H.262L.1 42.819v-4.81l.162-.162h3.57l.26.129 2.228 2.94h.197l2.228-2.94.26-.129H12.575zM22.601 37.976l3.692 4.873-.065.128h-2.973l-.259-.129-.504-.664-.26-.131h-4.316l-.26.131-.504.664-.26.129h-2.973l-.065-.128 3.692-4.873.26-.128h4.534L22.601 37.976zM21.4 40.458l-.771-1.017-.26-.128h-.576l-.262.128-.77 1.017.063.128h2.51L21.4 40.458zM27.924 37.848l-.262.129-.386.508-.097.291v3.276l.097.291.386.508.262.128h9.456l.163-.162v-1.396L37.38 41.26h-6.963l-.162-.163V39.73l.162-.162h6.963l.163-.163v-1.396l-.163-.162H27.924zM46.301 39.85l.017-.179 3.314-1.748-.018-.077h-4.082l-.305.077-3.069 1.618-.145-.087v-1.445l-.16-.163h-2.769l-.163.163v4.808l.163.163h2.769l.16-.163v-.712l.145-.239 1.653-.872.269.028 2.268 1.855.288.104h3.328L50 42.877 46.301 39.85zM26.093 14.7h2.742l.179-.129.511-1.562.179-.129h2.099l.263.052.669.28.226-.039 1.786-1.64-.024-.144-1.993-.837-.147-.186-.278-1.776.104-.082 1.991.835.104-.082-.322-2.05.073-.233.438-.459-.024-.166-.567-.33L33.857 6l-2.708.981-.255-.006-.8-.336-.168.076L29.821 7.04l.063.213.399.321.011.183-.267.268-.222.043-.822-.345L28.9 7.54l.36-1.104-.082-.183-.513-.214-.168.076L28 7.633l-.007.261.317 1.212-.007.261-1.105 3.383-.179.13h-.597l-.16.134-.28 1.551L26.093 14.7M31.889 13.423h-1.791l-.179.129-.332 1.018.093.13h2.408l.116-.136-.158-1.007L31.889 13.423M35.018 7.892l.14.069.597-.33.032-.171-.488-.597-.181-.007-.13.136-.075.233M35.149 8.729l.134.857.147.186 1.474.619.175.181.151.386.186.119.345-.021.177-.138.483-1.471-.067-.213-.787-.591-.123-.216L37.35 7.512l-.132-.071-1.97 1.089L35.149 8.729M39.977 8.893L38.23 7.879l-.104.067.032.308.121.218.867.664.065.213-.723 2.215L38.308 11.7l-2.354.14-.207.125-1.158 1.881.054.168.526.222.082.181-.498 1.504-.17.076-1.383-.58-.261-.052h-.473l-.116.134.453 2.878.14.201 1.985 1.118-.017.075-1.735.101-.192.132-1.68 3.806-.088.255-1.814 7.732.043.244.369.552-.06.112h-.388l-.213-.112-.293-.436-.048-.246 1.577-7.73-.035-.255-.762-1.484.026-.226 2.5-2.889.067-.239-.565-3.59-.157-.136h-5.372l-.136.138v.181l-.099.229-8.752 8.112-.235.093h-1.145l-.237.091-.587.546-.03.211 1.079 1.868.024.248-2.028 5.827.024.246.205.35.205.119h3.993l.162-.134.088-.451-.054-.244-.841-1.154.05-.147 5.039-1.519.032-.134-1.504-1.473-.214-.026-4.356 2.612-.183.19-.785 1.445-.199.119h-.33l-.082-.123 1.706-3.888.188-.145 3.676-.597.157-.157.623-3.853-.08-.226-.768-.679-.076-.224.089-.453.127-.043 1.35 1.193.125.226.949 5.674.086.013 1.366-2.656.198-.097 1.646.296.188-.101.531-1.271.03-.259-1.115-6.651.062-.026 2.466 3.189.03.233-.923 2.203.004.25.85 1.847.032.257-1.217 6.261.041.252.207.35.203.119h3.946l.177-.13.149-.459-.043-.237-1.495-1.862-.028-.229 1.819-3.801.076-.259.347-2.805.103-.244 2.705-3.38.084-.242-.075-2.923-.086-.246-.235-.321-.039-.239.514-1.571-.026-.248-.309-.544.058-.171 3.326-1.471.168-.183.969-2.966L39.977 8.893"
     id="path1" />
</svg>
